<?xml version="1.0" encoding="UTF-8"?>
<svg xmlns="http://www.w3.org/2000/svg" xmlns:xlink="http://www.w3.org/1999/xlink" width="500" zoomAndPan="magnify" viewBox="0 0 375 374.999991" height="500" preserveAspectRatio="xMidYMid meet" version="1.0">
  <rect x="-37.5" width="450" fill="#185179" y="-37.499999" height="449.999989" fill-opacity="1"/>
  <path fill="#ffffff" d="M 241.121094 57.496094 C 231.332031 47.703125 218.316406 42.320312 204.480469 42.320312 C 190.632812 42.320312 177.621094 47.703125 167.828125 57.496094 C 158.035156 67.28125 152.640625 80.304688 152.640625 94.148438 C 152.640625 106.1875 156.730469 117.585938 164.226562 126.796875 L 154.222656 136.804688 L 151.945312 134.523438 L 121.59375 164.867188 L 133.742188 177.015625 L 164.082031 146.671875 L 161.8125 144.394531 L 171.816406 134.390625 C 181.03125 141.894531 192.429688 145.972656 204.464844 145.972656 C 218.3125 145.972656 231.328125 140.582031 241.121094 130.789062 C 261.332031 110.582031 261.332031 77.703125 241.121094 57.496094 Z M 235.523438 125.1875 C 227.226562 133.484375 216.207031 138.046875 204.464844 138.046875 C 192.738281 138.046875 181.714844 133.480469 173.417969 125.1875 C 165.128906 116.898438 160.5625 105.875 160.5625 94.144531 C 160.5625 82.414062 165.128906 71.382812 173.421875 63.097656 C 181.710938 54.796875 192.730469 50.234375 204.472656 50.234375 C 216.199219 50.234375 227.222656 54.804688 235.519531 63.097656 C 252.636719 80.222656 252.636719 108.078125 235.523438 125.1875 Z M 235.523438 125.1875" fill-opacity="1" fill-rule="nonzero"/>
  <path fill="#ffffff" d="M 204.472656 56.140625 C 194.316406 56.140625 184.78125 60.101562 177.601562 67.273438 C 176.519531 68.351562 176.519531 70.113281 177.601562 71.195312 C 178.683594 72.277344 180.445312 72.277344 181.523438 71.195312 C 187.65625 65.066406 195.804688 61.695312 204.472656 61.695312 C 213.148438 61.695312 221.289062 65.066406 227.425781 71.195312 C 227.960938 71.738281 228.671875 72.007812 229.390625 72.007812 C 230.09375 72.007812 230.804688 71.738281 231.355469 71.195312 C 232.433594 70.113281 232.433594 68.351562 231.355469 67.273438 C 224.167969 60.101562 214.625 56.140625 204.472656 56.140625 Z M 204.472656 56.140625" fill-opacity="1" fill-rule="nonzero"/>
</svg>